<?xml version="1.0" standalone="no"?><!DOCTYPE svg PUBLIC "-//W3C//DTD SVG 1.1//EN" "http://www.w3.org/Graphics/SVG/1.1/DTD/svg11.dtd"><svg t="1612795713868" class="icon" viewBox="0 0 1024 1024" version="1.1" xmlns="http://www.w3.org/2000/svg" p-id="15158" xmlns:xlink="http://www.w3.org/1999/xlink" width="200" height="200"><defs><style type="text/css"></style></defs><path d="M512 957.5c-60.12 0-118.47-11.79-173.42-35.03-53.06-22.44-100.69-54.56-141.6-95.46s-73.02-88.54-95.46-141.59C78.28 630.47 66.5 572.12 66.5 512s11.78-118.47 35.03-173.42c22.44-53.06 54.56-100.69 95.46-141.6s88.54-73.02 141.6-95.46C393.53 78.28 451.88 66.5 512 66.5s118.47 11.78 173.42 35.03c53.05 22.44 100.69 54.56 141.59 95.46s73.02 88.54 95.46 141.6c23.24 54.95 35.03 113.3 35.03 173.42 0 60.25-11.77 118.52-35.02 173.41l25.37 147.74c7.92 46.11-23.15 90.07-69.26 98a84.412 84.412 0 0 1-19.25 1.08l-173.45-9.95C630.85 945.66 572.41 957.5 512 957.5z m0-806.14c-96.33 0-186.9 37.51-255.01 105.63S151.36 415.67 151.36 512c0 96.33 37.51 186.9 105.63 255.01C325.1 835.13 415.67 872.64 512 872.64c51.84 0 101.86-10.75 148.66-31.96l9.51-4.31 194.04 11.13-29.74-173.29 5.48-11.94c21.7-47.26 32.7-97.82 32.7-150.29 0-96.33-37.51-186.9-105.63-255.01C698.9 188.87 608.33 151.36 512 151.36z" p-id="15159" fill="#ff0000"></path><path d="M299.86 512m-63.64 0a63.64 63.64 0 1 0 127.28 0 63.64 63.64 0 1 0-127.28 0Z" p-id="15160" fill="#ff0000"></path><path d="M512 512m-63.64 0a63.64 63.64 0 1 0 127.28 0 63.64 63.64 0 1 0-127.28 0Z" p-id="15161" fill="#ff0000"></path><path d="M724.14 512m-63.64 0a63.64 63.64 0 1 0 127.28 0 63.64 63.64 0 1 0-127.28 0Z" p-id="15162" fill="#ff0000"></path></svg>