<?xml version="1.0" encoding="UTF-8" standalone="no"?>
<!DOCTYPE svg PUBLIC "-//W3C//DTD SVG 1.1//EN" "http://www.w3.org/Graphics/SVG/1.1/DTD/svg11.dtd">
<svg width="100%" height="100%" viewBox="0 0 64 64" version="1.1" xmlns="http://www.w3.org/2000/svg" xmlns:xlink="http://www.w3.org/1999/xlink" xml:space="preserve" xmlns:serif="http://www.serif.com/" style="fill-rule:evenodd;clip-rule:evenodd;stroke-linejoin:round;stroke-miterlimit:2;">
    <path d="M20,18L20,16.624C20.084,13.04 21.251,10.061 23.5,7.686C25.749,5.311 28.583,4.082 32,3.998C35.417,4.082 38.251,5.311 40.5,7.686C42.749,10.061 43.916,13.04 44,16.624L44,18L52.188,18C52.729,18 53.177,18.167 53.532,18.5C53.887,18.833 54.105,19.271 54.188,19.812L57.75,55.812C57.834,56.396 57.678,56.907 57.282,57.344C56.886,57.781 56.397,58 55.814,58L8.188,58C7.604,58 7.115,57.781 6.72,57.344C6.325,56.907 6.169,56.396 6.252,55.812L9.814,19.812C9.898,19.271 10.117,18.833 10.47,18.5C10.823,18.167 11.271,18 11.814,18L20.002,18L20,18ZM24,18L40,18L40,16.624C39.959,14.165 39.177,12.123 37.656,10.498C36.135,8.873 34.249,8.039 32,7.998C29.749,8.039 27.864,8.873 26.344,10.498C24.824,12.123 24.043,14.165 24,16.624L24,18ZM20,22L13.624,22L10.436,54L53.562,54L50.374,22L43.998,22L43.998,28C43.998,28.584 43.811,29.063 43.436,29.438C43.061,29.813 42.582,30 41.998,30C41.414,30 40.935,29.813 40.56,29.438C40.185,29.063 39.998,28.584 39.998,28L39.998,22L23.998,22L23.998,28C23.998,28.584 23.811,29.063 23.436,29.438C23.061,29.813 22.582,30 21.998,30C21.414,30 20.935,29.813 20.56,29.438C20.185,29.063 19.998,28.584 19.998,28L19.998,22L20,22Z" style="fill:#ff0000;fill-rule:nonzero;"/>
</svg>
