<?xml version="1.0" standalone="no"?><!DOCTYPE svg PUBLIC "-//W3C//DTD SVG 1.1//EN" "http://www.w3.org/Graphics/SVG/1.1/DTD/svg11.dtd"><svg t="1617669121321" class="icon" viewBox="0 0 1024 1024" version="1.1" xmlns="http://www.w3.org/2000/svg" p-id="2071" xmlns:xlink="http://www.w3.org/1999/xlink" width="64" height="64"><defs><style type="text/css"></style></defs><path d="M650.016 128H200q-30.016 0-51.008 20.992T128 200v623.008q0 30.016 20.992 51.008t51.008 20.992h623.008q30.016 0 51.008-20.992t20.992-51.008V372.992zM328.992 200h216.992v206.016q0 15.008-10.496 25.504t-25.504 10.496h-144.992q-15.008 0-25.504-10.496t-10.496-25.504V200z m494.016 623.008H200V200h56.992v206.016q0 44.992 31.488 76.512t76.512 31.488h144.992q44 0 76-32t32-76V200h2.016l203.008 203.008v420zM468.992 370.016q15.008 0 25.504-10.496t10.496-25.504V291.008q0-15.008-10.496-25.504t-25.504-10.496-25.504 10.496-10.496 25.504v43.008q0 15.008 10.496 25.504t25.504 10.496z" p-id="2072" fill="#ffffff"></path></svg>