<?xml version="1.0" standalone="no"?><!DOCTYPE svg PUBLIC "-//W3C//DTD SVG 1.1//EN" "http://www.w3.org/Graphics/SVG/1.1/DTD/svg11.dtd"><svg t="1612795302408" class="icon" viewBox="0 0 1024 1024" version="1.1" xmlns="http://www.w3.org/2000/svg" p-id="7112" xmlns:xlink="http://www.w3.org/1999/xlink" width="200" height="200"><defs><style type="text/css"></style></defs><path d="M874.496 195.584h-74.24v39.424c0 51.2-38.4 92.16-86.528 92.16-48.128 0-86.528-40.96-86.528-92.16v-39.424H405.504v39.424c0 51.2-39.424 92.16-87.04 92.16s-86.528-40.96-86.528-92.16v-39.424H157.696c-20.992 0.512-37.888 18.432-36.864 39.424v658.944c-0.512 20.992 15.872 38.912 36.864 39.424h716.8c20.992-0.512 37.888-18.432 36.864-39.424V235.008c1.024-20.992-15.872-38.4-36.864-39.424z m-51.712 658.944H195.072V416.768h627.712v437.76z" p-id="7113" fill="#ff0000"></path><path d="M713.728 274.944c-20.992-0.512-37.888-18.432-36.864-39.424V129.536c-1.024-13.824 6.144-27.136 17.92-34.304 11.776-7.168 26.624-7.168 38.4 0s18.944 20.48 17.92 34.304v105.472c0.512 21.504-15.872 38.912-37.376 39.936zM318.976 274.944c-20.992-0.512-37.888-18.432-36.864-39.424V129.536c-0.512-20.992 15.872-38.4 36.352-39.424 20.992 0.512 37.888 18.432 36.864 39.424v105.472c0.512 21.504-15.872 38.912-36.352 39.936zM541.184 600.576H472.064c-13.824 0-25.088-11.264-25.088-25.088V506.368c0-13.824 11.264-25.088 25.088-25.088h69.12c13.824 0 25.088 11.264 25.088 25.088v69.12c0 13.824-11.264 25.088-25.088 25.088zM724.48 600.576H655.36c-13.824 0-25.088-11.264-25.088-25.088V506.368c0-13.824 11.264-25.088 25.088-25.088h69.12c13.824 0 25.088 11.264 25.088 25.088v69.12c0 13.824-11.264 25.088-25.088 25.088zM541.184 788.48H472.064c-13.824 0-25.088-11.264-25.088-25.088v-69.12c0-13.824 11.264-25.088 25.088-25.088h69.12c13.824 0 25.088 11.264 25.088 25.088v69.12c0 13.824-11.264 25.088-25.088 25.088zM357.888 788.48H288.768c-13.824 0-25.088-11.264-25.088-25.088v-69.12c0-13.824 11.264-25.088 25.088-25.088h69.12c13.824 0 25.088 11.264 25.088 25.088v69.12c0 13.824-11.264 25.088-25.088 25.088zM724.48 788.48H655.36c-13.824 0-25.088-11.264-25.088-25.088v-69.12c0-13.824 11.264-25.088 25.088-25.088h69.12c13.824 0 25.088 11.264 25.088 25.088v69.12c0 13.824-11.264 25.088-25.088 25.088z" p-id="7114" fill="#ff0000"></path></svg>