<?xml version="1.0" standalone="no"?><!DOCTYPE svg PUBLIC "-//W3C//DTD SVG 1.1//EN" "http://www.w3.org/Graphics/SVG/1.1/DTD/svg11.dtd"><svg t="1621033523326" class="icon" viewBox="0 0 1024 1024" version="1.1" xmlns="http://www.w3.org/2000/svg" p-id="6194" xmlns:xlink="http://www.w3.org/1999/xlink" width="64" height="64"><defs><style type="text/css"></style></defs><path d="M583.0656 59.8016a71.68 71.68 0 0 1 45.8752 16.5888l288.9728 242.4832a71.8848 71.8848 0 0 1 8.8064 100.9664l-430.08 513.2288a72.0896 72.0896 0 0 1-55.0912 25.3952 70.656 70.656 0 0 1-46.4896-16.384L106.0864 699.5968a71.8848 71.8848 0 0 1-8.8064-100.9664l430.08-513.2288a72.2944 72.2944 0 0 1 55.0912-25.6m0-51.2a122.88 122.88 0 0 0-94.208 43.8272l-430.08 513.2288a122.88 122.88 0 0 0 15.1552 173.056l288.768 242.4832a122.88 122.88 0 0 0 173.056-15.1552l430.08-513.4336a122.88 122.88 0 0 0-15.1552-173.056L661.9136 37.2736a122.88 122.88 0 0 0-78.848-28.672z" p-id="6195" fill="#ff0000"></path><path d="M700.0064 599.4496a26.0096 26.0096 0 0 1-16.384-5.9392 25.6 25.6 0 0 1-3.2768-36.0448l132.096-157.2864a25.6 25.6 0 1 1 39.1168 32.9728l-131.8912 157.0816a25.3952 25.3952 0 0 1-19.6608 9.216zM139.40736 516.608l32.91136-39.2192 434.8928 364.91264-32.91136 39.2192zM921.6 1015.3984H637.7472a25.6 25.6 0 0 1 0-51.2H921.6a25.6 25.6 0 0 1 0 51.2z" p-id="6196" fill="#ff0000"></path></svg>