<?xml version="1.0" standalone="no"?><!DOCTYPE svg PUBLIC "-//W3C//DTD SVG 1.1//EN" "http://www.w3.org/Graphics/SVG/1.1/DTD/svg11.dtd"><svg t="1612795516799" class="icon" viewBox="0 0 1024 1024" version="1.1" xmlns="http://www.w3.org/2000/svg" p-id="11360" xmlns:xlink="http://www.w3.org/1999/xlink" width="200" height="200"><defs><style type="text/css"></style></defs><path d="M256 307.2a51.2 51.2 0 0 0-51.2 51.2v512a51.2 51.2 0 0 0 51.2 51.2h512a51.2 51.2 0 0 0 51.2-51.2v-512a51.2 51.2 0 0 0-51.2-51.2H256z m0-51.2h512a102.4 102.4 0 0 1 102.4 102.4v512A102.4 102.4 0 0 1 768 972.8H256a102.4 102.4 0 0 1-102.4-102.4v-512A102.4 102.4 0 0 1 256 256z" fill="#ff0000" p-id="11361"></path><path d="M384 409.6a25.6 25.6 0 0 1-51.2 0V256a179.2 179.2 0 0 1 358.4 0v153.6a25.6 25.6 0 0 1-51.2 0V256a128 128 0 0 0-256 0v153.6zM188.493 841.856v-51.2h668.851v51.2z" fill="#ff0000" p-id="11362"></path></svg>