<?xml version="1.0" encoding="utf-8"?>
<!DOCTYPE svg PUBLIC "-//W3C//DTD SVG 20010904//EN" "http://www.w3.org/TR/2001/REC-SVG-20010904/DTD/svg10.dtd">
<svg version="1.0" xmlns="http://www.w3.org/2000/svg" width="870px" height="696px" viewBox="0 0 870 696" preserveAspectRatio="xMidYMid meet">
 <g fill="#1eb9e8">
  <path d="M823 478 c0 -1.6 0.7 -2 3 -2 2.3 0 3 0.4 3 2 0 1.6 -0.7 2 -3 2 -2.3 0 -3 -0.4 -3 -2z"/>
  <path d="M846 478 c0 -1.5 0.7 -2 2.5 -2 1.8 0 2.5 0.5 2.5 2 0 1.5 -0.7 2 -2.5 2 -1.8 0 -2.5 -0.5 -2.5 -2z"/>
  <path d="M230 469.6 c0 -1.9 3.5 -2.6 16.3 -3.6 10.1 -0.7 30.5 0.1 36.1 1.6 1.4 0.3 2.6 1.2 2.6 2 0 1.2 -4.7 1.4 -27.5 1.4 -22.8 0 -27.5 -0.2 -27.5 -1.4z"/>
  <path d="M276.9 74.3 c1.6 -3 19.2 -20.5 27.4 -27.1 25.7 -21 57.5 -36.1 89.9 -42.6 44.1 -9 90 -3.2 130.7 16.4 23.9 11.6 47.3 29.1 64.1 48 l6.2 7 -20.2 0 -20.1 0 0.7 -11 c0.4 -6 0.4 -11 0.1 -11 -0.3 0 -4.3 2.3 -8.9 5.2 -4.6 2.8 -13.7 7.8 -20.3 11 l-12 5.8 -119.3 0 c-113.3 0 -119.2 -0.1 -118.3 -1.7z"/>
 </g>
 <g fill="#30bbda">
  <path d="M714 523.8 c0 -2.4 -6 -8.8 -10.3 -11 -5.3 -2.7 -18.4 -3.6 -50.4 -3.7 l-23.3 -0.1 0 7.5 0 7.5 -24 0 -24 0 0 -25 0 -25.1 2.5 -2.4 2.4 -2.5 49.4 0 c66.2 0 82.4 1.4 97.2 8.5 8.3 3.9 15.8 10.8 21.5 19.6 4 6.2 9 19.8 9 24.5 l0 2.4 -22.7 0 c-12.6 0 -23.8 0.3 -25 0.6 -1.6 0.4 -2.3 0.2 -2.3 -0.8z"/>
  <path d="M830 524 c0 -0.5 0.5 -1 1 -1 2 0 0.9 -2.3 -3.3 -7.3 -4.6 -5.4 -9.7 -12.7 -9.7 -13.8 0 -0.3 1.1 -1.1 2.4 -1.7 2.1 -0.9 2.5 -0.7 3.5 1.5 1.4 3 9.2 13.3 11.5 15.3 1.5 1.1 2.2 0.8 5.5 -2.4 2.1 -2.1 5.4 -6.4 7.2 -9.7 1.9 -3.2 3.7 -5.9 4 -5.9 0.3 0 1.3 0.6 2.4 1.3 1.7 1.3 1.5 1.8 -2.7 8.3 -2.5 3.8 -5.8 8.2 -7.3 9.7 -2.6 2.7 -2.6 2.9 -0.9 4.8 1.7 1.9 1.6 1.9 -5.9 1.9 -4.5 0 -7.7 -0.4 -7.7 -1z"/>
  <path d="M4 498.5 c0 -24.2 0.1 -25.6 2 -27.5 2 -2 3.3 -2 79.5 -2 l77.6 0 2.5 2.5 c2.5 2.5 2.5 2.6 2.2 18.6 -0.3 14.5 -0.5 16.2 -2.2 17.5 -1.7 1.2 -11.3 1.4 -58.3 1.4 l-56.3 0 0 7.5 0 7.5 -23.5 0 -23.5 0 0 -25.5z"/>
  <path d="M175.6 519.8 c2.9 -18.6 16 -36 33.7 -44.6 13.6 -6.7 16.8 -7.2 48.3 -7.2 24.6 0 28.7 0.2 34.7 1.9 23.4 6.7 39 21 46.1 42.3 4.4 12.9 6.5 11.8 -21.7 11.8 l-24.3 0 -3.4 -5.2 c-6.5 -9.9 -15 -13.3 -33 -13.3 -9 0.1 -13 0.5 -18.5 2.2 -8.3 2.6 -15.1 7.9 -16.3 12.6 l-0.8 3.2 -22.7 0.3 -22.7 0.2 0.6 -4.2z"/>
  <path d="M409.9 519.8 c13.2 -30.9 19.7 -44.7 21.7 -46.5 2.5 -2.2 3.1 -2.3 25.4 -2.3 22.3 0 22.9 0.1 25.3 2.3 1.4 1.2 6 10.4 10.5 20.7 4.5 10.2 9.2 21.1 10.6 24.3 l2.6 5.7 -49 0 -48.9 0 1.8 -4.2z"/>
  <path d="M823 492.5 l0 -3.5 -8.5 0 c-7.8 0 -8.5 -0.2 -8.5 -2 0 -1.8 0.7 -2 8.5 -2 l8.5 0 0 -4 c0 -3.8 0.2 -4 3 -4 2.8 0 3 0.2 3 4 l0 4 8.5 0 8.5 0 0 -4 c0 -3.6 0.3 -4 2.5 -4 2.3 0 2.5 0.4 2.5 4 l0 4 8.5 0 c7.8 0 8.5 0.2 8.5 2 0 1.8 -0.7 2 -8.5 2 l-8.5 0 0 3.5 c0 3.1 -0.3 3.5 -2.5 3.5 -2.2 0 -2.5 -0.4 -2.5 -3.5 l0 -3.5 -8.5 0 -8.5 0 0 3.5 c0 3.2 -0.2 3.5 -3 3.5 -2.8 0 -3 -0.3 -3 -3.5z"/>
  <path d="M240.6 136.8 c6.3 -17.9 19.9 -42.2 32.5 -58.1 l4.4 -5.6 119.8 0 c66.3 -0.1 119.7 0.3 119.7 0.8 0 2.1 -31.4 13.7 -68.4 25.2 -62.7 19.4 -78.3 25.7 -96.9 39 l-8.2 5.9 -52.7 0 -52.8 0 2.6 -7.2z"/>
  <path d="M510 143.1 c0 -0.4 2.4 -2.4 5.3 -4.3 21.8 -14.5 34.3 -33.6 38.8 -59.3 l1.1 -6.5 18.8 0 18.9 0 6.9 9.3 c12.5 16.5 21.3 32.5 28.8 51.8 1.9 4.8 3.4 9.1 3.4 9.4 0 0.3 -27.4 0.5 -61 0.5 -33.5 0 -61 -0.4 -61 -0.9z"/>
 </g>
 <g fill="#6fc198">
  <path d="M242.6 694.9 c-10 -1.1 -22.2 -4.1 -29.5 -7.4 -8.3 -3.8 -16.1 -8.7 -16.1 -10.2 0 -1 12.3 -1.3 63.5 -1.3 38.4 0 63.5 0.4 63.5 0.9 0 3.2 -17.8 12 -30 15 -15.5 3.7 -34.1 4.8 -51.4 3z"/>
  <path d="M6.2 690.4 c-1.9 -1.3 -2.2 -2.4 -2.2 -8 l0 -6.4 23.5 0 23.5 0 0 5.9 c0 5.2 -0.3 6.2 -2.6 8 -2.5 2 -4 2.1 -21.3 2.1 -15.3 0 -19.1 -0.3 -20.9 -1.6z"/>
  <path d="M584.5 689.5 c-2.1 -2 -2.5 -3.4 -2.5 -8 l0 -5.5 24 0 24 0 0 5.5 c0 4.6 -0.4 6 -2.5 8 -2.4 2.5 -2.6 2.5 -21.5 2.5 -18.9 0 -19.1 0 -21.5 -2.5z"/>
  <path d="M728.2 691.3 c-0.7 -0.3 -3.5 -3.8 -6.3 -7.9 l-5 -7.4 28.5 0 28.5 0 2.6 4.3 c3.1 5.4 3.1 6.2 0 9.2 l-2.4 2.5 -22.3 -0.1 c-12.3 0 -22.9 -0.3 -23.6 -0.6z"/>
  <path d="M820 685.4 c0 -6.2 0.1 -6.5 2.3 -6.2 2 0.3 2.2 0.9 2.5 6.6 0.3 6.1 0.2 6.2 -2.3 6.2 -2.4 0 -2.5 -0.2 -2.5 -6.6z"/>
  <path d="M849 685.5 c0 -5.8 0.2 -6.5 2 -6.5 1.8 0 2 0.7 2 6.5 0 5.8 -0.2 6.5 -2 6.5 -1.8 0 -2 -0.7 -2 -6.5z"/>
  <path d="M551.5 689.9 c-12.7 -1.8 -31.5 -9.2 -31.5 -12.4 0 -1.3 3.4 -1.5 23.8 -1.5 l23.8 0 2.4 3.3 c1.3 1.7 4.2 5.1 6.3 7.5 l4 4.2 -11.4 -0.1 c-6.3 -0.1 -14.1 -0.5 -17.4 -1z"/>
  <path d="M833.7 686.3 c-1.5 -1.5 -1.3 -1.8 2.1 -4.4 3.5 -2.7 8.2 -3.9 8.2 -2.1 0 0.8 -3.8 4.5 -7.1 7 -1.2 0.9 -1.9 0.8 -3.2 -0.5z"/>
  <path d="M807.6 685.1 c-1.6 -1.8 -1.6 -2 1 -4 1.5 -1.1 3.8 -2.1 5.1 -2.1 l2.4 0 -2 2.8 c-3.4 4.9 -4.6 5.4 -6.5 3.3z"/>
  <path d="M861.8 683.9 c-2.1 -1.7 -3.8 -3.5 -3.8 -4 0 -1.6 4.2 -1 7.7 1.2 3.2 2 3.3 2.2 1.7 4 -0.9 1.1 -1.8 1.9 -1.8 1.9 -0.1 -0.1 -1.8 -1.4 -3.8 -3.1z"/>
  <path d="M339.4 683.5 c-0.3 -0.8 -0.2 -2.7 0.3 -4.2 l1 -2.8 25.7 -0.3 25.7 -0.2 -1.7 3.2 c-3 5.7 -3 5.7 -27.7 5.8 -19.1 0 -22.9 -0.2 -23.3 -1.5z"/>
  <path d="M450.1 408.9 c-24.7 -4.8 -46.4 -21.5 -57.9 -44.4 -3.4 -6.8 -7.2 -18.5 -7.2 -22.1 l0 -2.4 104 0 c98.8 0 104 0.1 103.1 1.8 -1.7 3.1 -23.4 23.7 -31.9 30.1 -21.4 16.2 -44.5 27.6 -70.1 34.7 -11.1 3 -13.7 3.4 -24 3.3 -6.4 -0.1 -13.6 -0.5 -16 -1z"/>
  <path d="M366 402.1 c-20.2 -7.3 -37.1 -16.3 -54.6 -29.4 -10.4 -7.7 -26.3 -22.3 -31.5 -28.8 l-3.1 -3.9 14.5 0 14.5 0 6.8 10.3 c13.1 19.8 36.4 40.3 58.3 51.3 10.5 5.3 9 5.5 -4.9 0.5z"/>
 </g>
 <g fill="#43bdcb">
  <path d="M837 577.5 c0 -5.2 0.1 -5.5 2.5 -5.5 2.4 0 2.5 0.3 2.5 5.5 0 5.2 -0.1 5.5 -2.5 5.5 -2.4 0 -2.5 -0.3 -2.5 -5.5z"/>
  <path d="M809.6 579.1 c-1.7 -1.9 -1.6 -2.2 2.8 -7.6 2.6 -3.1 6 -8.3 7.7 -11.6 2.4 -4.9 3.4 -6 5.2 -5.7 2.2 0.3 2.4 1.3 1.1 5.6 l-0.6 2.2 20.9 0 21 0 -0.7 3.8 c-0.4 2 -1.7 5.6 -2.9 8 -1.9 3.6 -2.5 4.2 -4.4 3.6 -3.2 -0.9 -3.2 -1 -0.8 -4.9 1.1 -2 2.1 -4 2.1 -4.6 0 -0.5 -7.9 -0.9 -19.3 -0.9 l-19.4 0 -3.7 5.4 c-2 2.9 -4.5 6.1 -5.5 7 -1.6 1.5 -1.9 1.5 -3.5 -0.3z"/>
  <path d="M4 549.5 l0 -28.5 23.5 0 23.5 0 0 21.5 0 21.5 50.8 0 c41.1 0 51.2 0.3 52.7 1.4 1.3 0.9 2 3 2.3 7 l0.4 5.6 -76.6 0 -76.6 0 0 -28.5z"/>
  <path d="M192.9 570.2 c-12.1 -12.3 -17.8 -25.9 -17.9 -42.4 l0 -6.8 22.8 0 22.7 0 0.1 4.4 c0.2 12 9.7 17.4 46.7 26.7 19.1 4.8 32.9 9.1 41.7 13 6.8 3.1 19 10.9 19 12.1 0 0.5 -28.7 0.8 -63.7 0.8 l-63.7 0 -7.7 -7.8z"/>
  <path d="M396.6 549.9 c6.8 -15.5 12.4 -28.4 12.4 -28.5 0 -0.2 21.5 -0.4 47.8 -0.4 l47.9 0 11.8 26.8 c6.4 14.7 12 27.3 12.3 28.1 0.3 0.7 -1.4 0.1 -3.8 -1.4 -10.4 -6.6 -24.7 -9.9 -42.6 -10 l-12 0 -6.9 -16.8 c-3.8 -9.2 -7.2 -16.4 -7.6 -16 -0.5 0.5 -5.3 10.9 -10.7 23.3 l-9.9 22.5 -25.6 0.3 -25.5 0.2 12.4 -28.1z"/>
  <path d="M582 549.5 l0 -28.5 24 0 24 0 0 28.5 0 28.5 -24 0 -24 0 0 -28.5z"/>
  <path d="M640 570.1 l0 -7.9 27.3 -0.5 c29.5 -0.5 33.7 -1.1 40.4 -6.3 2 -1.5 4.6 -4.9 6 -8.1 2.2 -4.7 2.4 -6.4 2 -13.1 -0.3 -4.2 -0.8 -8.9 -1.2 -10.4 l-0.7 -2.8 25 0 25.1 0 0.7 3.6 c1.2 6.3 -0.4 21 -3.1 29 -2.7 7.9 -5.6 13.2 -11.3 20.2 l-3.4 4.2 -53.4 0 -53.4 0 0 -7.9z"/>
  <path d="M296.7 534.8 c-1.3 -1.3 -3 -4.3 -3.6 -6.7 -0.7 -2.3 -1.5 -4.9 -1.8 -5.7 -0.4 -1.2 3.5 -1.4 24.5 -1.4 l25 0 0.6 2.3 c1 3.7 0.7 7.2 -0.9 9.4 -1.6 2.2 -1.9 2.3 -30.7 3.8 -10.1 0.5 -10.8 0.4 -13.1 -1.7z"/>
  <path d="M808.2 534.9 c-0.7 -1.2 -1.2 -2.2 -1 -2.3 0.2 -0.1 3 -1 6.3 -2 3.3 -1 8.9 -3.1 12.3 -4.8 5.7 -2.7 6.3 -3.2 5.8 -5.4 -0.6 -2.3 -0.4 -2.4 3.6 -2.4 2.4 0 5.3 -0.3 6.6 -0.6 1.6 -0.5 2.2 -0.2 2.2 1 0 1.6 -1.9 2.3 -8 2.9 -2.9 0.3 -2.7 0.4 1.2 0.5 2.6 0.1 6.2 1.1 8 2.1 1.8 1.1 7.3 3.3 12.3 5 4.9 1.6 9.1 3.4 9.2 3.8 0.2 0.5 -0.2 1.7 -0.9 2.6 -1.2 1.6 -1.9 1.5 -9.8 -1.3 -4.7 -1.7 -10.8 -4.4 -13.6 -6 l-5.1 -2.8 -4.9 2.9 c-4.9 2.9 -19.6 8.9 -21.7 8.9 -0.7 0 -1.8 -0.9 -2.5 -2.1z"/>
  <path d="M4 517.5 c0 -1.3 3.3 -1.5 23.5 -1.5 20.2 0 23.5 0.2 23.5 1.5 0 1.3 -3.3 1.5 -23.5 1.5 -20.2 0 -23.5 -0.2 -23.5 -1.5z"/>
  <path d="M176 517.5 c0 -1.3 3.2 -1.5 23 -1.5 19.8 0 23 0.2 23 1.5 0 1.3 -3.2 1.5 -23 1.5 -19.8 0 -23 -0.2 -23 -1.5z"/>
  <path d="M288.7 518.3 c-2 -2 1.6 -2.3 25.3 -2.3 22.4 0 26 0.2 26 1.5 0 1.3 -3.5 1.5 -25.3 1.5 -14 0 -25.7 -0.3 -26 -0.7z"/>
  <path d="M410.6 517.5 c0.5 -1.3 6.6 -1.5 46.4 -1.5 39.8 0 45.9 0.2 46.4 1.5 0.5 1.3 -5.1 1.5 -46.4 1.5 -41.3 0 -46.9 -0.2 -46.4 -1.5z"/>
  <path d="M582 517.5 c0 -1.3 3.3 -1.5 24 -1.5 20.7 0 24 0.2 24 1.5 0 1.3 -3.3 1.5 -24 1.5 -20.7 0 -24 -0.2 -24 -1.5z"/>
  <path d="M710.7 518.3 c-2 -2 1.6 -2.3 25.7 -2.3 22.5 0 26.5 0.2 27 1.5 0.5 1.3 -2.8 1.5 -25.8 1.5 -14.4 0 -26.6 -0.3 -26.9 -0.7z"/>
  <path d="M228 207.8 c0 -16.6 4.2 -44.5 9 -60.1 l2.1 -6.7 53.4 0 c29.4 0 53.5 0.3 53.5 0.8 0 0.4 -1.9 2.1 -4.1 3.7 -5.8 4.2 -18.5 17.7 -25.1 26.5 -7.3 9.8 -15 23.3 -19 33.7 l-3.3 8.3 -33.2 0 -33.3 0 0 -6.2z"/>
  <path d="M359 213.4 c0 -1.6 10.2 -12.2 16.8 -17.5 20.6 -16.6 40.7 -25.2 86.9 -37.4 24.2 -6.3 36.5 -10.4 44 -14.6 l5.3 -2.9 59.5 0 59.5 0 1 2.6 c4.7 12.2 8.9 36.6 9.7 55.7 l0.6 14.7 -53.2 0 -53.1 0 4.2 -5.2 c6 -7.4 9.3 -13.3 12.2 -22 2.7 -8.1 4.3 -22.2 3.2 -28.2 l-0.7 -3.6 -5.7 3.8 c-19.9 13.4 -43.6 22.7 -82.8 32.3 -24.1 5.9 -36.8 10.1 -52.3 17.5 l-11.4 5.4 -21.8 0 c-12.1 0 -21.9 -0.3 -21.9 -0.6z"/>
  <path d="M295.3 138.2 c-54.5 -0.2 -55.1 -0.2 -54.6 -2.2 0.5 -2 1.5 -2 57.4 -2 32.3 0 56.9 0.4 56.9 0.9 0 0.5 -1 1.5 -2.2 2.2 -1.9 1.2 -12.3 1.4 -57.5 1.1z"/>
  <path d="M519.3 136 c2.4 -1.9 4 -2 56 -2 47.8 0 53.5 0.2 54.1 1.6 0.3 0.9 0.6 1.8 0.6 2 0 0.2 -25.5 0.4 -56.6 0.4 l-56.7 0 2.6 -2z"/>
 </g>
 <g fill="#66c0a7">
  <path d="M810.5 681.9 c-2.4 -0.5 -2.6 -0.7 -1.3 -1.3 1.7 -0.8 9.8 -10.7 9.8 -11.9 0 -0.4 -2.4 -0.7 -5.3 -0.7 -4.6 0 -5.3 -0.3 -5.3 -2 0 -1.8 0.7 -2 5.8 -2 l5.8 0 0 -3.5 c0 -3 0.3 -3.5 2.3 -3.5 1.8 0 2.2 0.5 2.2 3.3 0 3.2 0.1 3.2 5.1 3.5 4.5 0.3 5.1 0.5 4.7 2.2 -0.4 1.5 -1.6 2 -5.2 2.2 -3.9 0.3 -4.6 0.6 -4.9 2.6 -0.3 1.7 0.2 2.2 1.9 2.2 1.2 0 3.7 1 5.6 2.1 3.1 1.9 3.3 2.3 1.9 3.7 -1.3 1.4 -1.9 1.2 -5 -1.1 -3.8 -2.9 -5.2 -2.3 -4.2 1.9 0.6 2.1 0.3 2.4 -1.9 2.4 -2.2 0 -2.5 -0.4 -2.5 -3.5 0 -1.9 -0.4 -3.5 -1 -3.5 -0.5 0 -1 0.5 -1 1.1 0 0.6 -1 2.3 -2.2 3.8 -1.9 2.1 -2.9 2.5 -5.3 2z"/>
  <path d="M839 682.3 c-2.4 -0.4 -2.3 -0.6 3.3 -6.4 3.1 -3.3 5.5 -6.5 5.2 -7 -0.4 -0.5 -2.4 -0.9 -4.6 -0.9 -3.2 0 -3.9 -0.3 -3.9 -2 0 -1.7 0.7 -2 5 -2 l5 0 0 -3.5 c0 -2.8 0.4 -3.5 2 -3.5 1.6 0 2 0.7 2 3.5 l0 3.5 6.5 0 c5.8 0 6.5 0.2 6.5 2 0 1.8 -0.7 2 -5.4 2 -3 0 -5.7 0.4 -6.1 0.9 -0.3 0.6 2.1 3.7 5.3 7 l5.8 5.9 -2.9 0.5 c-2.5 0.3 -3.3 -0.2 -5.6 -3.4 -1.4 -2.1 -2.9 -3.8 -3.3 -3.9 -0.5 0 -0.8 1.6 -0.8 3.5 0 2.8 -0.4 3.5 -2 3.5 -1.6 0 -2 -0.7 -2 -3.5 0 -4.5 -1.1 -4.4 -4.4 0.5 -1.4 2.2 -2.7 3.9 -2.9 3.9 -0.1 -0.1 -1.3 -0.4 -2.7 -0.6z"/>
  <path d="M194.8 676.3 c-5.2 -4.3 -11.6 -12 -15.7 -18.8 -3.6 -5.9 -9.5 -22.2 -10.6 -29.2 l-0.7 -4.3 24 0 23.9 0 1.1 3.8 c1.8 5.9 8.4 15.5 13.3 19 8.6 6.4 13.7 7.7 30.4 7.7 13.4 0 15.6 -0.3 20.9 -2.4 7.1 -2.8 15.1 -9.9 17.7 -15.6 1 -2.2 1.9 -5.9 1.9 -8.2 l0 -4.3 24.1 0 24.1 0 -0.7 7.3 c-1.6 16.1 -8.3 30.5 -19 41.1 l-7 6.9 -62 0.1 -61.9 0.1 -3.8 -3.2z"/>
  <path d="M515.5 675.2 c-10.1 -8 -16.6 -20.4 -19.1 -36.7 -0.8 -4.9 -1.6 -10.2 -1.9 -11.7 l-0.4 -2.8 14.8 0 14.9 0 1.8 7.2 c1.9 7.8 9.7 24.4 13.8 29.3 2.3 2.8 2.3 2.4 -0.9 -5 -3.1 -7.4 -7.3 -20.5 -9 -28.2 l-0.7 -3.3 8 0 7.9 0 2.3 8.7 c3.8 14.3 9.3 26.7 17.4 38.7 2.6 3.8 4.5 7 4.3 7.2 -0.1 0.2 -11 0.4 -24 0.6 l-23.8 0.3 -5.4 -4.3z"/>
  <path d="M701.9 653.8 c-9.6 -14.2 -18 -26.7 -18.8 -27.8 -1.3 -2 -1.1 -2 28.2 -2 l29.5 0 8 12.3 c10.5 16.2 26.2 41.3 26.2 42 0 0.4 -12.5 0.8 -27.9 0.9 l-27.8 0.3 -17.4 -25.7z"/>
  <path d="M4 651.5 l0 -27.5 23.5 0 23.5 0 0 27.5 0 27.5 -23.5 0 -23.5 0 0 -27.5z"/>
  <path d="M340 678.7 c0 -0.1 5.3 -12.4 11.9 -27.2 l11.9 -27 25.5 -0.3 25.6 -0.2 -4.8 10.7 c-2.6 6 -8.1 18.3 -12.1 27.6 l-7.4 16.7 -25.3 0 c-13.9 0 -25.3 -0.1 -25.3 -0.3z"/>
  <path d="M582 651.5 l0 -27.5 24 0 24 0 0 27.5 0 27.5 -24 0 -24 0 0 -27.5z"/>
  <path d="M808.2 655.5 c-0.9 -2 -0.5 -2.3 7.2 -4.8 7.8 -2.6 16.1 -6.8 16.1 -8.3 0 -0.3 -4.8 -0.6 -10.7 -0.5 -10.3 0.2 -10.8 0.1 -10.8 -1.8 0 -2 0.6 -2.1 12.5 -2.1 11.8 0 12.5 -0.1 12.5 -2 0 -1.5 0.7 -2 2.5 -2 1.8 0 2.5 0.5 2.5 2 0 1.9 0.7 2 13.1 2 11.9 0 13 0.2 12.7 1.8 -0.3 1.5 -1.7 1.7 -11.1 1.9 -6 0 -11.1 0.3 -11.3 0.6 -1 1 7.1 5.1 15.4 7.8 4.8 1.5 8.7 2.9 8.6 3.1 0 0.2 -0.5 1.1 -1 2 -0.9 1.7 -1.4 1.7 -8.2 -0.6 -4 -1.3 -9.7 -4 -12.7 -6 l-5.5 -3.6 0 6.5 c0 6.2 -0.1 6.5 -2.5 6.5 -2.3 0 -2.4 -0.3 -2.7 -6.5 l-0.3 -6.4 -5.4 3.6 c-2.9 2 -8.6 4.8 -12.6 6.3 l-7.3 2.7 -1 -2.2z"/>
  <path d="M487.8 343.2 l-102.7 -0.2 -0.8 -3.8 c-0.4 -2 -0.7 -8 -0.6 -13.2 0.1 -16.3 5.7 -31.7 16.4 -45.3 l5.4 -6.7 112.7 0 112.8 0 -2.1 5.8 c-3.3 9.1 -12.1 27 -17.7 35.9 -4.5 7.4 -15.2 21.9 -19.2 26.2 -1.4 1.5 -10.8 1.6 -104.2 1.3z"/>
  <path d="M272.4 334.8 c-8 -10.2 -15.6 -22.3 -22.5 -35.9 -5 -10 -9.9 -21.9 -9.9 -23.9 0 -0.6 8.8 -1 23.4 -1 l23.3 0 0.7 7.8 c1.3 15.6 7.7 36.8 15.9 52.6 l4.4 8.6 -14.3 0 -14.4 0 -6.6 -8.2z"/>
  <path d="M334.1 292.5 c-0.1 -4.4 0.2 -10.4 0.5 -13.2 l0.7 -5.3 4.3 0 4.3 0 -3 6.5 c-1.6 3.5 -3.8 9.5 -4.8 13.2 l-2 6.8 0 -8z"/>
 </g>
 <g fill="#58bfb9">
  <path d="M835 634 c0 -2.5 0.4 -3 2.5 -3 2.1 0 2.5 0.5 2.5 3 0 2.5 -0.4 3 -2.5 3 -2.1 0 -2.5 -0.5 -2.5 -3z"/>
  <path d="M168 623.9 c0 -5.8 1.7 -6.5 19 -8.3 20 -2.1 23.3 -2 25.2 0.2 1.2 1.4 3.8 8.6 3.8 10.5 0 0.4 -10.8 0.8 -24 0.9 l-24 0.3 0 -3.6z"/>
  <path d="M678.8 620.2 c-9.7 -13.6 -17.5 -18.6 -31 -19.8 l-7.8 -0.7 0 -12.3 0 -12.4 54 0 c29.7 0 54 0.4 54 0.8 0 1.3 -9.2 7.8 -15.7 11.1 -3.4 1.7 -9.4 3.9 -13.4 5.1 -3.9 1.1 -7.4 2.1 -7.6 2.4 -0.2 0.2 2.9 2.9 7 6 4.1 3 9.2 7.5 11.3 9.8 4.5 4.9 12.4 15.2 12.4 16.1 0 0.4 -13 0.8 -29 0.9 l-28.9 0.3 -5.3 -7.3z"/>
  <path d="M4 601 l0 -26 76.5 0 76.5 0 0 12 c0 11.5 -0.1 12.2 -2.5 14.5 l-2.4 2.5 -50.6 0 -50.5 0 0 11.5 0 11.5 -23.5 0 -23.5 0 0 -26z"/>
  <path d="M301 623.9 c0 -4.4 -3.7 -10.4 -8.2 -13.4 -5.9 -3.9 -12 -6 -36.5 -12.4 -21.8 -5.7 -32.1 -8.9 -40.8 -12.6 -5.6 -2.4 -16.5 -8.8 -16.5 -9.7 0 -0.4 28.7 -0.8 63.7 -0.8 l63.8 0 5.6 6 c9.4 10 14.8 23.1 16.4 39.3 l0.7 6.7 -24.1 0 -24.1 0 0 -3.1z"/>
  <path d="M363.2 626.1 c0.2 -0.5 5.2 -12.2 11.3 -26 l11 -25.1 25.2 0 c13.9 0 25.3 0.2 25.3 0.5 0 0.3 -1.4 3.5 -3 7.2 -1.7 3.6 -2.8 6.8 -2.6 7 0.2 0.2 2.6 -1 5.3 -2.6 7.1 -4.4 17.9 -8.7 26.8 -10.6 6 -1.4 10.9 -1.6 22.8 -1.3 13.2 0.4 16.3 0.8 23.1 3.2 18.4 6.3 29.9 19.2 35 39.2 2.5 9.7 2.7 9.4 -6.2 9.4 l-7.8 0 -1.2 -4.6 c-2.7 -10.1 -12.1 -24.1 -18.3 -27.5 -2.6 -1.3 -2.4 -0.8 1.2 3.7 4.8 6 12.9 23.4 12.9 27.6 0 0.5 -6.6 0.7 -14.6 0.6 l-14.6 -0.3 -2.9 -11.5 c-3.6 -14.5 -10.9 -29.5 -15.8 -32.7 -7.9 -5.3 -26.4 -0.3 -44.2 11.8 -5.4 3.7 -5.7 4.1 -12 18.3 l-6.4 14.6 -25.3 0 c-15.1 0 -25.2 -0.4 -25 -0.9z"/>
  <path d="M582 601 l0 -26 24 0 24 0 0 26 0 26 -24 0 -24 0 0 -26z"/>
  <path d="M824.8 612 l-0.5 -3 5.3 0 c4.2 0 5.5 -0.4 6.4 -1.9 0.5 -1.1 1 -7.6 1 -14.5 l0 -12.6 2.5 0 2.5 0 0 14.9 c0 18.2 -0.2 18.6 -10.1 19.5 l-6.7 0.6 -0.4 -3z"/>
  <path d="M809.5 606.6 c-1.7 -1.2 -1.6 -1.6 2.7 -7.7 2.5 -3.5 5.8 -8.8 7.2 -11.7 2.3 -4.6 3 -5.2 4.9 -4.6 1.2 0.3 2.3 0.8 2.5 0.9 0.9 0.8 -13.4 24.5 -14.8 24.5 -0.3 0 -1.4 -0.6 -2.5 -1.4z"/>
  <path d="M863 606.3 c0 -0.5 -3 -5.5 -6.5 -11.2 -5.9 -9.4 -6.4 -10.6 -5 -12 2 -2 2.4 -1.5 10.9 11.3 6 9.1 6.4 10 4.8 11.2 -1.9 1.5 -4.2 1.8 -4.2 0.7z"/>
  <path d="M516.7 277.2 c-89.1 -0.2 -112.8 -0.5 -112.5 -1.4 0.3 -0.7 4.1 -4.2 8.6 -7.8 14.1 -11.5 28.3 -17.4 63.8 -26.4 20.7 -5.2 28.8 -8.1 39.2 -13.7 7.5 -4 17.1 -10.9 20.6 -14.8 1.9 -2.1 2.2 -2.1 53.8 -2.1 l51.8 0 0 3.4 c0 13.4 -4.9 41.1 -9.7 55.1 l-2.8 8 -112.8 -0.3z"/>
  <path d="M237.6 268.7 c-4.7 -14.9 -7.4 -29.6 -9.1 -50.4 l-0.6 -7.3 33.5 0 c18.5 0 33.6 0.2 33.6 0.5 0 0.3 -1.1 4.3 -2.5 9 -4.1 14.3 -5.8 25.9 -5.9 41.7 l-0.1 14.8 -23.1 0 -23.1 0 -2.7 -8.3z"/>
  <path d="M335 275.6 c0 -3.7 3.3 -19.4 5.6 -26.8 3.7 -11.7 7.5 -19.8 14 -29.4 l5.5 -8.4 23 0 c12.6 0 22.9 0.3 22.9 0.8 -0.1 0.4 -4.2 3.2 -9.1 6.2 -21.6 13.1 -40.4 32.3 -50.5 51.6 -3.8 7.2 -4 7.4 -7.6 7.4 -2.6 0 -3.8 -0.5 -3.8 -1.4z"/>
 </g>
</svg>