<?xml version="1.0" standalone="no"?><!DOCTYPE svg PUBLIC "-//W3C//DTD SVG 1.1//EN" "http://www.w3.org/Graphics/SVG/1.1/DTD/svg11.dtd"><svg t="1613181317880" class="icon" viewBox="0 0 1024 1024" version="1.1" xmlns="http://www.w3.org/2000/svg" p-id="2134" xmlns:xlink="http://www.w3.org/1999/xlink" width="200" height="200"><defs><style type="text/css"></style></defs><path d="M610.816 0l326.656 341.504v563.2c0 66.048-36.352 119.296-102.912 119.296H214.528c-66.56 0-128.512-53.248-128.512-119.296V119.296C86.016 53.248 147.968 0 214.528 0h396.288z" fill="#41B3CE" p-id="2135"></path><path d="M937.984 341.504l-186.368-0.512c-66.56 0-140.288-58.88-140.288-124.928V0l326.656 341.504z" fill="#2BA7BC" p-id="2136"></path><path d="M406.528 601.088l85.504-144.896h77.824v364.032h-53.248v-281.088h-0.512l-110.592 171.52-112.64-171.52H291.84v281.088H238.08V456.192h78.336L404.48 601.088h2.048z m349.184-144.896v229.376h47.104c2.048 0 3.072 1.536 3.072 3.072 0 0.512 0 1.024-0.512 2.048l-75.776 129.024c-0.512 0.512-1.536 1.024-2.048 0.512-0.512 0-0.512-0.512-0.512-0.512l-75.776-129.024c-1.024-2.048-0.512-3.584 1.024-4.608 0.512-0.512 1.024-0.512 2.048-0.512h47.616V456.192h53.76z" fill="#FFFFFF" p-id="2137"></path></svg>