<?xml version="1.0" standalone="no"?><!DOCTYPE svg PUBLIC "-//W3C//DTD SVG 1.1//EN" "http://www.w3.org/Graphics/SVG/1.1/DTD/svg11.dtd"><svg t="1613181339208" class="icon" viewBox="0 0 1024 1024" version="1.1" xmlns="http://www.w3.org/2000/svg" p-id="2964" xmlns:xlink="http://www.w3.org/1999/xlink" width="200" height="200"><defs><style type="text/css"></style></defs><path d="M227.555556 28.444444h389.404444a19.911111 19.911111 0 0 1 14.734222 6.542223l271.132445 298.211555a28.444444 28.444444 0 0 1 7.395555 19.143111V938.666667a56.888889 56.888889 0 0 1-56.888889 56.888889H227.555556a56.888889 56.888889 0 0 1-56.888889-56.888889V85.333333a56.888889 56.888889 0 0 1 56.888889-56.888889z" fill="#FF5562" p-id="2965"></path><path d="M625.777778 30.492444a19.911111 19.911111 0 0 1 5.916444 4.465778l271.132445 298.24a28.444444 28.444444 0 0 1 5.176889 8.135111H682.666667a56.888889 56.888889 0 0 1-56.888889-56.888889V30.492444z" fill="#FFFFFF" fill-opacity=".65" p-id="2966"></path><path d="M337.806222 520.192h66.446222c37.319111 0 55.978667 15.928889 55.978667 47.786667 0 32.085333-18.887111 48.241778-56.206222 48.241777h-47.559111V682.666667h-18.659556v-162.474667z m18.659556 16.156444v63.715556h46.648889c13.198222 0 22.755556-2.730667 29.127111-7.964444 6.144-5.233778 9.329778-13.198222 9.329778-24.120889 0-10.922667-3.185778-18.887111-9.557334-23.665778-6.371556-5.461333-15.928889-7.964444-28.899555-7.964445h-46.648889z m127.431111-16.156444h58.254222c25.713778 0 45.056 7.281778 58.254222 22.300444 12.060444 13.653333 18.204444 33.450667 18.204445 58.936889 0 25.031111-6.599111 44.828444-19.569778 58.936889-13.653333 14.791111-33.223111 22.300444-58.709333 22.300445h-56.433778v-162.474667z m18.659555 16.156444v130.161778h34.588445c21.162667 0 37.091556-5.688889 47.786667-16.839111 10.012444-10.922667 15.246222-27.079111 15.246222-48.241778 0-21.845333-4.778667-38.001778-14.108445-48.469333-10.012444-11.150222-25.486222-16.611556-46.876444-16.611556h-36.636445z m141.994667-16.156444h108.771556v16.156444h-90.112v54.613334h85.333333v16.156444h-85.333333V682.666667h-18.659556v-162.474667z" fill="#FFFFFF" p-id="2967"></path></svg>