<?xml version="1.0" standalone="no"?><!DOCTYPE svg PUBLIC "-//W3C//DTD SVG 1.1//EN" "http://www.w3.org/Graphics/SVG/1.1/DTD/svg11.dtd"><svg t="1614158201247" class="icon" viewBox="0 0 1024 1024" version="1.1" xmlns="http://www.w3.org/2000/svg" p-id="4400" xmlns:xlink="http://www.w3.org/1999/xlink" width="200" height="200"><defs><style type="text/css"></style></defs><path d="M105.184 950.848h164.576v-164.576H105.184v164.576z m201.12 0h182.848v-164.576H306.304v164.576z m-201.12-201.12h164.576v-182.848H105.184v182.848z m201.12 0h182.848v-182.848H306.304v182.848z m-201.12-219.456h164.576v-164.576H105.184v164.576z m420.576 420.576h182.848v-164.576h-182.848v164.576zM306.304 530.272h182.848v-164.576H306.304v164.576z m438.88 420.576h164.576v-164.576h-164.576v164.576z m-219.424-201.12h182.848v-182.848h-182.848v182.848zM324.608 256V91.424q0-7.424-5.44-12.864t-12.864-5.44H269.728q-7.424 0-12.864 5.44t-5.44 12.864V256q0 7.424 5.44 12.864t12.864 5.44h36.576q7.424 0 12.864-5.44T324.608 256z m420.576 493.728h164.576v-182.848h-164.576v182.848z m-219.424-219.456h182.848v-164.576h-182.848v164.576z m219.424 0h164.576v-164.576h-164.576v164.576zM763.456 256V91.424q0-7.424-5.44-12.864t-12.864-5.44h-36.576q-7.424 0-12.864 5.44t-5.44 12.864V256q0 7.424 5.44 12.864t12.864 5.44h36.576q7.424 0 12.864-5.44t5.44-12.864z m219.424-36.576v731.424q0 29.728-21.728 51.424T909.728 1024H105.152q-29.728 0-51.424-21.728t-21.728-51.424V219.424q0-29.728 21.728-51.424t51.424-21.728h73.152V91.424q0-37.728 26.848-64.576T269.728 0h36.576q37.728 0 64.576 26.848t26.848 64.576v54.848h219.424V91.424q0-37.728 26.848-64.576T708.576 0h36.576q37.728 0 64.576 26.848t26.848 64.576v54.848h73.152q29.728 0 51.424 21.728t21.728 51.424z" p-id="4401" fill="#ffffff"></path></svg>